<svg xmlns="http://www.w3.org/2000/svg" viewBox="0 0 12.38 26.52"><defs><style>.cls-1{fill:#58595b;}</style></defs><g id="Layer_1" data-name="Layer 1"><path class="cls-1" d="M2.65,26.52H8V13.26h3.93L12.38,8H8.16V5.83A1.12,1.12,0,0,1,9.33,4.56h3V0L8.21,0C3.66,0,2.63,3.39,2.63,5.56V8H0v5.3H2.65Z"/><path class="cls-1" d="M2.65,26.52H8V13.26h3.93L12.38,8H8.16V5.83A1.12,1.12,0,0,1,9.33,4.56h3V0L8.21,0C3.66,0,2.63,3.39,2.63,5.56V8H0v5.3H2.65Z"/><path class="cls-1" d="M2.65,26.52H8V13.26h3.93L12.38,8H8.16V5.83A1.12,1.12,0,0,1,9.33,4.56h3V0L8.21,0C3.66,0,2.63,3.39,2.63,5.56V8H0v5.3H2.65Z"/></g></svg>