<svg xmlns="http://www.w3.org/2000/svg" viewBox="0 0 173.37 32.86"><defs><style>.cls-1{fill:#808285;}</style></defs><g id="Layer_1" data-name="Layer 1"><path class="cls-1" d="M17.69,25.59H0V0H4.08V22.21H17.69Z"/><path class="cls-1" d="M31.82,22.73l-1,2.12a8.54,8.54,0,0,1-4.9,1.26c-3.48,0-6.34-2-6.34-5.68,0-4.37,3.49-6.75,10.94-6.75h1.26V13.2c0-.74,0-1.41-.07-2.15-.11-1.59-1.11-2.71-3.45-2.71s-3.6,1.34-3.82,3.79H20.36c.26-4.31,3.49-6.75,8-6.75,5.08,0,7.09,2.15,7.42,5.49.08.81.11,1.85.11,2.78v6.93a35,35,0,0,0,.37,5h-4Zm0-4.52V16.39c-4.78-.37-7.9.71-7.9,3.71,0,2.08,1.38,3,3.53,3C30,23.14,31.78,21.4,31.78,18.21Z"/><path class="cls-1" d="M62,25.59H57.34L53.44,9.68,49.51,25.59H44.8L38.53,5.9h4.6l4,16L51,5.93h5L59.89,22l4-16.09h4.34Z"/><path class="cls-1" d="M92.86,12.57c0,8.09-5,12.24-10,12.87a23.65,23.65,0,0,1-3.26.15H72.06V0h7.6a27.09,27.09,0,0,1,3.08.11C87.93.7,92.86,4.41,92.86,12.57Zm-2.52,0C90.34,6,86.75,2.63,82.52,2a22.43,22.43,0,0,0-3-.11H74.36V23.66h5.08a20.39,20.39,0,0,0,3.15-.15C86.82,22.88,90.34,19.21,90.34,12.57Z"/><path class="cls-1" d="M112.74,16.47H97.87c.26,5.78,3.19,7.82,6.38,7.82a5.88,5.88,0,0,0,5.9-4.89h2.41c-.93,4.56-4.53,6.71-8.46,6.71-4.89,0-8.71-3.41-8.71-10.31,0-6.31,3.93-10.35,9.08-10.35,5.49,0,8.35,4.38,8.35,9.79A8.39,8.39,0,0,1,112.74,16.47ZM97.87,14.65h12.61c-.26-5.05-2.78-7.34-6.08-7.34S98.21,9.75,97.87,14.65Z"/><path class="cls-1" d="M133.79,15.54c0,7.12-4.38,10.57-9.35,10.57a7.47,7.47,0,0,1-5-1.74l-1.22-2.12V32.86h-2.3v-27h2.3V9.6l1.29-2.15a7.79,7.79,0,0,1,5.57-2C130.52,5.45,133.79,9.72,133.79,15.54Zm-2.52.3c0-4.71-2.27-8.53-6.57-8.53-3.48,0-6.52,2.07-6.52,8V16.8c0,5.6,3.37,7.49,6.26,7.49C128.37,24.29,131.27,21.14,131.27,15.84Z"/><path class="cls-1" d="M155.08,15.8c0,5.75-3.3,10.31-9.53,10.31S136,21.55,136,15.8s3.3-10.35,9.53-10.35S155.08,10,155.08,15.8Zm-2.53,0c0-5.34-2.93-8.49-7-8.49s-7,3.15-7,8.49,2.93,8.49,7,8.49S152.55,21.14,152.55,15.8Z"/><path class="cls-1" d="M161.86,20.21c0,.82,0,1.23,0,1.74.15,1.9,1,2.38,3.6,2V25.7a12.74,12.74,0,0,1-2.38.19c-2.18,0-3.33-1-3.52-3.12,0-.67,0-1.41,0-2.52V7.9H157V6.12h2.52V1.78h2.3V6.12h3.75V7.9h-3.75Z"/><path class="cls-1" d="M166.82,22.33a3.21,3.21,0,0,1,.43-1.63,3.14,3.14,0,0,1,1.2-1.2,3.31,3.31,0,0,1,3.28,0,3.14,3.14,0,0,1,1.2,1.2,3.25,3.25,0,0,1,.44,1.64,3.21,3.21,0,0,1-.42,1.6,3.14,3.14,0,0,1-1.19,1.21,3.29,3.29,0,0,1-4.52-1.2A3.25,3.25,0,0,1,166.82,22.33Zm.45,0a2.75,2.75,0,0,0,.38,1.4,2.78,2.78,0,0,0,1,1,2.79,2.79,0,0,0,2.81,0,2.8,2.8,0,0,0,1-1,2.81,2.81,0,0,0,0-2.82,2.77,2.77,0,0,0-1-1,2.7,2.7,0,0,0-1.42-.38,2.74,2.74,0,0,0-1.4.37,2.93,2.93,0,0,0-1,1A2.76,2.76,0,0,0,167.27,22.33Zm4.15-.79a1.07,1.07,0,0,1-.18.61,1.16,1.16,0,0,1-.52.4l1,1.71H171l-.9-1.53h-.59v1.53h-.64V20.39H170a1.6,1.6,0,0,1,1.06.29A1,1,0,0,1,171.42,21.54Zm-1.89.65H170a.84.84,0,0,0,.56-.18.57.57,0,0,0,.21-.46.55.55,0,0,0-.18-.46,1,1,0,0,0-.6-.15h-.46Z"/></g></svg>