<svg xmlns="http://www.w3.org/2000/svg" viewBox="0 0 26.52 26.52"><defs><style>.cls-1{fill:#58595b;}</style></defs><g id="Layer_1" data-name="Layer 1"><rect class="cls-1" y="8.84" width="6.19" height="17.68"/><path class="cls-1" d="M3.09,6.19A3.1,3.1,0,1,0,0,3.09,3.1,3.1,0,0,0,3.09,6.19Z"/><path class="cls-1" d="M26.52,16.8c0-4.77-1-8-6.59-8-2.67,0-4.47,1-5.2,2.39h-.08V8.84H9.72V26.52h5.16V17.76c0-2.31.43-4.55,3.29-4.55s3,2.64,3,4.7v8.61h5.3Z"/><rect class="cls-1" y="8.84" width="6.19" height="17.68"/><path class="cls-1" d="M3.09,6.19A3.1,3.1,0,1,0,0,3.09,3.1,3.1,0,0,0,3.09,6.19Z"/><path class="cls-1" d="M26.52,16.8c0-4.77-1-8-6.59-8-2.67,0-4.47,1-5.2,2.39h-.08V8.84H9.72V26.52h5.16V17.76c0-2.31.43-4.55,3.29-4.55s3,2.64,3,4.7v8.61h5.3Z"/><rect class="cls-1" y="8.84" width="6.19" height="17.68"/><path class="cls-1" d="M3.09,6.19A3.1,3.1,0,1,0,0,3.09,3.1,3.1,0,0,0,3.09,6.19Z"/><path class="cls-1" d="M26.52,16.8c0-4.77-1-8-6.59-8-2.67,0-4.47,1-5.2,2.39h-.08V8.84H9.72V26.52h5.16V17.76c0-2.31.43-4.55,3.29-4.55s3,2.64,3,4.7v8.61h5.3Z"/></g></svg>