<svg xmlns="http://www.w3.org/2000/svg" viewBox="0 0 26.52 21.22"><defs><style>.cls-1{fill:#58595b;}</style></defs><g id="Layer_1" data-name="Layer 1"><path class="cls-1" d="M25.79.39a10.86,10.86,0,0,1-3.46,1.3,5.46,5.46,0,0,0-4-1.69,5.4,5.4,0,0,0-5.44,5.36,5.5,5.5,0,0,0,.14,1.22A15.55,15.55,0,0,1,1.85,1a5.25,5.25,0,0,0-.74,2.69A5.33,5.33,0,0,0,3.53,8.13a5.5,5.5,0,0,1-2.46-.67v.07a5.38,5.38,0,0,0,4.36,5.25A5.55,5.55,0,0,1,4,13a5.89,5.89,0,0,1-1-.1,5.45,5.45,0,0,0,5.09,3.72A11,11,0,0,1,1.3,18.88,11.2,11.2,0,0,1,0,18.81a15.59,15.59,0,0,0,8.34,2.41A15.25,15.25,0,0,0,23.82,6c0-.23,0-.47,0-.7a10.81,10.81,0,0,0,2.71-2.77,10.82,10.82,0,0,1-3.12.84A5.4,5.4,0,0,0,25.79.39Z"/><path class="cls-1" d="M25.79.39a10.86,10.86,0,0,1-3.46,1.3,5.46,5.46,0,0,0-4-1.69,5.4,5.4,0,0,0-5.44,5.36,5.5,5.5,0,0,0,.14,1.22A15.55,15.55,0,0,1,1.85,1a5.25,5.25,0,0,0-.74,2.69A5.33,5.33,0,0,0,3.53,8.13a5.5,5.5,0,0,1-2.46-.67v.07a5.38,5.38,0,0,0,4.36,5.25A5.55,5.55,0,0,1,4,13a5.89,5.89,0,0,1-1-.1,5.45,5.45,0,0,0,5.09,3.72A11,11,0,0,1,1.3,18.88,11.2,11.2,0,0,1,0,18.81a15.59,15.59,0,0,0,8.34,2.41A15.25,15.25,0,0,0,23.82,6c0-.23,0-.47,0-.7a10.81,10.81,0,0,0,2.71-2.77,10.82,10.82,0,0,1-3.12.84A5.4,5.4,0,0,0,25.79.39Z"/><path class="cls-1" d="M25.79.39a10.86,10.86,0,0,1-3.46,1.3,5.46,5.46,0,0,0-4-1.69,5.4,5.4,0,0,0-5.44,5.36,5.5,5.5,0,0,0,.14,1.22A15.55,15.55,0,0,1,1.85,1a5.25,5.25,0,0,0-.74,2.69A5.33,5.33,0,0,0,3.53,8.13a5.5,5.5,0,0,1-2.46-.67v.07a5.38,5.38,0,0,0,4.36,5.25A5.55,5.55,0,0,1,4,13a5.89,5.89,0,0,1-1-.1,5.45,5.45,0,0,0,5.09,3.72A11,11,0,0,1,1.3,18.88,11.2,11.2,0,0,1,0,18.81a15.59,15.59,0,0,0,8.34,2.41A15.25,15.25,0,0,0,23.82,6c0-.23,0-.47,0-.7a10.81,10.81,0,0,0,2.71-2.77,10.82,10.82,0,0,1-3.12.84A5.4,5.4,0,0,0,25.79.39Z"/></g></svg>